<?xml version="1.0" standalone="no"?>
<!DOCTYPE svg PUBLIC "-//W3C//DTD SVG 1.1//EN" "http://www.w3.org/Graphics/SVG/1.1/DTD/svg11.dtd" >
<svg xmlns="http://www.w3.org/2000/svg" width="100%" height="100%">
<metadata>
Created by FontXChange 20110222 at Wed Apr 12 15:53:43 2017
 By Raul Hernandez
 The digitally encoded machine readable software for producing the
 Typefaces licensed to you is copyrighted (c) 1990, 2002 Adobe Systems.
 All Rights Reserved. This software is the property of Adobe Systems
 Incorporated and its licensors, and may not be reproduced, used,
 displayed, modified, disclosed or transferred without the express
 written approval of Adobe.
 
 The digitally encoded machine readable outline data for producing the Typefaces 
 provided as part of your laser printer is copyrighted (c) 1981, 2002 Heidelberger Druckmaschinen AG. 
 All rights reserved. This data is the property of Heidelberger Druckmaschinen AG, 
 and may not be reproduced, used, displayed, modified, disclosed or transferred 
 without the express written approval of Heidelberger Druckmaschinen AG. 
</metadata>
<defs>
<font id="HelveticaNeueLTStd-Cn" horiz-adv-x="463" >
  <font-face 
    font-family="HelveticaNeueLTStd"
    font-weight="400"
    font-stretch="condensed"
    units-per-em="1000"
    panose-1="2 11 5 6 3 5 2 3 2 4"
    ascent="714"
    descent="-286"
    x-height="536"
    cap-height="714"
    bbox="-164 -212 1000 932"
    underline-thickness="50"
    underline-position="-50"
    stemh="66"
    stemv="84"
    unicode-range="U+0020-FB02"
  />
<missing-glyph horiz-adv-x="500" 
d="M0 0v700h500v-700h-500zM250 395l170 255h-340zM280 350l170 -255v510zM80 50h340l-170 255zM50 605v-510l170 255z" />
    <glyph glyph-name="f_i" unicode="fi" 
d="M80 0v470h-78v66h78v63c0 81 35 123 116 123h61v-72h-39c-36 0 -54 -14 -54 -51v-63h92v-66h-92v-470h-84zM319 0v536h84v-536h-84zM319 618v96h84v-96h-84z" />
    <glyph glyph-name="f_l" unicode="fl" 
d="M80 0v470h-78v66h78v63c0 81 35 123 116 123h61v-72h-39c-36 0 -54 -14 -54 -51v-63h92v-66h-92v-470h-84zM319 0v714h84v-714h-84z" />
    <glyph glyph-name=".notdef" horiz-adv-x="500" 
d="M0 0v700h500v-700h-500zM250 395l170 255h-340zM280 350l170 -255v510zM80 50h340l-170 255zM50 605v-510l170 255z" />
    <glyph glyph-name="space" unicode=" " horiz-adv-x="240" 
 />
    <glyph glyph-name="exclam" unicode="!" horiz-adv-x="258" 
d="M99 186l-16 528h92l-16 -528h-60zM83 0v96h92v-96h-92z" />
    <glyph glyph-name="quotedbl" unicode="&#x22;" horiz-adv-x="407" 
d="M87 460v254h66v-254h-66zM254 460v254h66v-254h-66z" />
    <glyph glyph-name="numbersign" unicode="#" horiz-adv-x="480" 
d="M79 0l26 205h-82v66h90l19 154h-87v66h96l25 203h66l-25 -203h106l25 203h66l-25 -203h78v-66h-87l-19 -154h83v-66h-91l-26 -205h-66l26 205h-106l-26 -205h-66zM198 425l-19 -154h106l19 154h-106z" />
    <glyph glyph-name="dollar" unicode="$" horiz-adv-x="480" 
d="M259 306v-248c62 5 108 52 108 121c0 74 -48 105 -108 127zM217 405v231c-61 -8 -95 -46 -95 -111c0 -68 41 -99 95 -120zM217 708v58h42v-58c122 -6 178 -72 180 -194h-88c0 66 -23 115 -92 122v-245c92 -31 200 -54 200 -198c0 -150 -104 -201 -200 -207v-94h-42v94
c-151 6 -196 89 -196 232h88c0 -73 4 -150 108 -160v262c-90 29 -187 59 -187 196c0 63 26 182 187 192z" />
    <glyph glyph-name="percent" unicode="%" horiz-adv-x="759" 
d="M177 378c56 0 59 56 59 138s-3 138 -59 138s-59 -56 -59 -138s3 -138 59 -138zM186 -14l310 722h70l-310 -722h-70zM582 40c56 0 59 56 59 138s-3 138 -59 138s-59 -56 -59 -138s3 -138 59 -138zM177 324c-119 0 -131 92 -131 192s12 192 131 192s131 -92 131 -192
s-12 -192 -131 -192zM582 -14c-119 0 -131 92 -131 192s12 192 131 192s131 -92 131 -192s-12 -192 -131 -192z" />
    <glyph glyph-name="ampersand" unicode="&#x26;" horiz-adv-x="556" 
d="M238 453l19 18c32 31 64 59 64 107c0 41 -30 70 -72 70c-43 0 -71 -29 -71 -70c0 -32 21 -68 43 -101zM372 127l-157 227c-57 -34 -102 -88 -102 -163c0 -87 61 -133 131 -133c56 0 94 30 128 69zM275 400l141 -202c14 36 23 76 28 139h78c0 -52 -31 -173 -58 -208
l92 -129h-95l-48 67c-55 -52 -99 -81 -176 -81c-174 0 -212 133 -212 198c0 74 39 140 97 185l52 39l-22 36c-26 40 -52 80 -52 130c0 84 67 140 148 140c90 0 151 -39 151 -136c0 -70 -49 -115 -98 -156z" />
    <glyph glyph-name="quoteright" unicode="&#x2019;" horiz-adv-x="240" 
d="M74 608v106h92v-87c0 -76 -6 -144 -92 -167v47c35 17 44 37 44 77v24h-44z" />
    <glyph glyph-name="parenleft" unicode="(" horiz-adv-x="241" 
d="M189 714h48c-81 -133 -110 -294 -110 -449c0 -162 36 -306 110 -449h-48c-94 129 -146 291 -146 449c0 159 51 319 146 449z" />
    <glyph glyph-name="parenright" unicode=")" horiz-adv-x="241" 
d="M52 -184h-48c81 133 110 294 110 449c0 162 -36 306 -110 449h48c94 -129 146 -291 146 -449c0 -159 -51 -319 -146 -449z" />
    <glyph glyph-name="asterisk" unicode="*" horiz-adv-x="352" 
d="M146 595v119h60v-119l107 41l22 -58l-113 -34l76 -94l-50 -37l-72 102l-72 -102l-50 37l76 94l-113 34l22 58z" />
    <glyph glyph-name="plus" unicode="+" horiz-adv-x="600" 
d="M267 0v220h-220v66h220v220h66v-220h220v-66h-220v-220h-66z" />
    <glyph glyph-name="comma" unicode="," horiz-adv-x="240" 
d="M74 0v106h92v-87c0 -76 -6 -144 -92 -167v47c35 17 44 37 44 77v24h-44z" />
    <glyph glyph-name="hyphen" unicode="-" horiz-adv-x="352" 
d="M54 245v78h244v-78h-244z" />
    <glyph glyph-name="period" unicode="." horiz-adv-x="240" 
d="M74 0v106h92v-106h-92z" />
    <glyph glyph-name="slash" unicode="/" horiz-adv-x="278" 
d="M-10 -14l232 742h66l-232 -742h-66z" />
    <glyph glyph-name="zero" unicode="0" horiz-adv-x="480" 
d="M240 -14c-191 0 -202 190 -202 358c0 156 11 364 202 364s202 -190 202 -364c0 -150 -11 -358 -202 -358zM126 344c0 -149 6 -292 114 -292s114 143 114 292c0 156 -6 298 -114 298s-114 -142 -114 -298z" />
    <glyph glyph-name="one" unicode="1" horiz-adv-x="480" 
d="M67 532v60c89 5 171 16 175 116h60v-708h-84v532h-151z" />
    <glyph glyph-name="two" unicode="2" horiz-adv-x="480" 
d="M438 78v-78h-396c0 132 74 222 153 290l58 49c57 49 94 92 94 170c0 61 -27 127 -103 127c-109 0 -112 -113 -112 -153h-88c0 134 56 225 201 225c164 0 190 -127 190 -189c0 -108 -45 -165 -124 -233l-100 -87c-39 -33 -67 -74 -77 -121h304z" />
    <glyph glyph-name="three" unicode="3" horiz-adv-x="480" 
d="M180 333v66h44c75 0 108 54 108 125c0 65 -24 118 -92 118c-93 0 -102 -86 -102 -138h-88c0 121 57 204 188 204c148 0 182 -105 182 -184c0 -71 -36 -134 -110 -152v-2c80 -16 131 -67 131 -165c0 -129 -65 -219 -201 -219c-190 0 -201 166 -201 197v9h88
c0 -65 32 -140 113 -140c52 0 113 26 113 146c0 83 -40 135 -128 135h-45z" />
    <glyph glyph-name="four" unicode="4" horiz-adv-x="480" 
d="M284 570l-178 -327h180v327h-2zM30 250l256 458h84v-465h80v-72h-80v-171h-84v171h-256v79z" />
    <glyph glyph-name="five" unicode="5" horiz-adv-x="480" 
d="M58 331l39 363h316v-78h-249l-28 -205l2 -2c29 35 76 53 124 53c106 0 178 -84 178 -233c0 -132 -58 -243 -206 -243c-168 0 -194 139 -194 196h88c0 -37 14 -130 108 -130c100 0 116 112 116 184c0 78 -29 160 -118 160c-61 0 -100 -52 -100 -69z" />
    <glyph glyph-name="six" unicode="6" horiz-adv-x="480" 
d="M429 538h-88c0 59 -33 104 -93 104c-118 0 -125 -176 -125 -213v-56h2c14 26 57 79 135 79c123 0 185 -91 185 -224c0 -137 -68 -242 -200 -242c-196 0 -210 189 -210 336c0 162 10 386 215 386c165 0 179 -137 179 -170zM133 216c0 -74 24 -164 112 -164s112 90 112 164
s-18 164 -112 164s-112 -90 -112 -164z" />
    <glyph glyph-name="seven" unicode="7" horiz-adv-x="480" 
d="M38 616v78h404v-73c-39 -51 -95 -137 -139 -243c-45 -109 -84 -233 -97 -378h-98c13 107 42 217 86 322c42 104 99 204 168 294h-324z" />
    <glyph glyph-name="eight" unicode="8" horiz-adv-x="480" 
d="M37 195c0 95 40 154 125 182c-71 29 -103 75 -103 151c0 114 69 180 181 180s181 -66 181 -180c0 -76 -32 -122 -103 -151c85 -28 125 -87 125 -182c0 -93 -44 -209 -203 -209s-203 116 -203 209zM240 642c-65 0 -93 -49 -93 -116c0 -66 28 -116 93 -116
c64 0 93 50 93 116c0 67 -29 116 -93 116zM125 198c0 -83 33 -146 115 -146s115 63 115 146s-33 146 -115 146s-115 -63 -115 -146z" />
    <glyph glyph-name="nine" unicode="9" horiz-adv-x="480" 
d="M51 156h88c0 -58 33 -104 93 -104c118 0 125 177 125 213v56h-2c-14 -26 -57 -79 -135 -79c-123 0 -185 91 -185 224c0 137 68 242 200 242c196 0 210 -190 210 -336c0 -162 -10 -386 -215 -386c-165 0 -179 137 -179 170zM347 478c0 75 -24 164 -112 164
s-112 -89 -112 -164s18 -164 112 -164s112 89 112 164z" />
    <glyph glyph-name="colon" unicode=":" horiz-adv-x="240" 
d="M74 400v106h92v-106h-92zM74 0v106h92v-106h-92z" />
    <glyph glyph-name="semicolon" unicode=";" horiz-adv-x="240" 
d="M74 0v106h92v-87c0 -76 -6 -144 -92 -167v47c35 17 44 37 44 77v24h-44zM74 400v106h92v-106h-92z" />
    <glyph glyph-name="less" unicode="&#x3c;" horiz-adv-x="600" 
d="M47 223v60l506 231v-66l-428 -195l428 -195v-66z" />
    <glyph glyph-name="equal" unicode="=" horiz-adv-x="600" 
d="M47 322v66h506v-66h-506zM47 118v66h506v-66h-506z" />
    <glyph glyph-name="greater" unicode="&#x3e;" horiz-adv-x="600" 
d="M47 -8v66l428 195l-428 195v66l506 -231v-60z" />
    <glyph glyph-name="question" unicode="?" horiz-adv-x="444" 
d="M119 504h-84c0 118 57 218 186 218c120 0 188 -81 188 -188c0 -51 -18 -102 -50 -141c-10 -12 -69 -77 -78 -88c-25 -32 -32 -70 -32 -100v-19h-78c0 40 0 87 19 123c23 43 78 98 101 128s30 57 30 102c0 59 -32 111 -97 111c-97 0 -105 -97 -105 -146zM165 0v96h92v-96
h-92z" />
    <glyph glyph-name="at" unicode="@" horiz-adv-x="800" 
d="M240 293c0 -56 40 -96 94 -96c93 0 155 136 155 212c0 45 -30 100 -81 100c-97 0 -168 -123 -168 -216zM524 487l22 63h56l-84 -282c-5 -17 -9 -30 -9 -45c0 -14 10 -26 29 -26c91 0 167 107 167 218c0 151 -134 253 -305 253c-172 0 -305 -136 -305 -311
c0 -178 133 -311 305 -311c123 0 217 38 271 111h63c-64 -110 -180 -171 -334 -171c-205 0 -371 166 -371 371s166 371 371 371c216 0 371 -129 371 -309c0 -173 -140 -282 -258 -282c-40 0 -65 18 -70 59h-2c-31 -32 -66 -59 -125 -59c-73 0 -142 61 -142 150
c0 138 93 282 234 282c49 0 93 -21 114 -82h2z" />
    <glyph glyph-name="A" unicode="A" horiz-adv-x="500" 
d="M-8 0l206 714h118l192 -714h-92l-51 196h-228l-53 -196h-92zM254 613l-99 -345h192l-91 345h-2z" />
    <glyph glyph-name="B" unicode="B" horiz-adv-x="519" 
d="M146 340v-268h120c93 0 125 63 125 132c0 98 -63 136 -140 136h-105zM58 0v714h219c93 0 183 -44 183 -183c0 -65 -39 -130 -104 -149v-2c88 -21 127 -88 127 -176c0 -145 -82 -204 -231 -204h-194zM146 642v-236h101c37 0 121 9 121 119c0 74 -37 117 -123 117h-99z" />
    <glyph glyph-name="C" unicode="C" horiz-adv-x="519" 
d="M403 245h92c-8 -135 -61 -259 -217 -259c-203 0 -230 191 -230 371s33 371 230 371c146 0 207 -82 211 -222h-92c-2 81 -28 150 -119 150c-122 0 -138 -134 -138 -299s16 -299 138 -299c107 0 122 100 125 187z" />
    <glyph glyph-name="D" unicode="D" horiz-adv-x="556" 
d="M155 642v-570h92c152 0 169 156 169 284c0 138 -9 286 -169 286h-92zM67 0v714h191c222 0 250 -160 250 -357c0 -180 -45 -357 -241 -357h-200z" />
    <glyph glyph-name="E" unicode="E" 
d="M58 0v714h369v-78h-281v-224h265v-78h-265v-256h293v-78h-381z" />
    <glyph glyph-name="F" unicode="F" horiz-adv-x="444" 
d="M58 0v714h369v-78h-281v-224h265v-78h-265v-334h-88z" />
    <glyph glyph-name="G" unicode="G" horiz-adv-x="537" 
d="M489 516h-92c-4 75 -32 140 -119 140c-122 0 -138 -134 -138 -299s16 -299 138 -299s131 146 131 241h-141v72h221v-371h-66v97h-2c-19 -61 -76 -111 -154 -111c-186 0 -219 179 -219 371c0 180 33 371 230 371c205 0 210 -175 211 -212z" />
    <glyph glyph-name="H" unicode="H" horiz-adv-x="537" 
d="M479 714v-714h-88v344h-245v-344h-88v714h88v-292h245v292h88z" />
    <glyph glyph-name="I" unicode="I" horiz-adv-x="204" 
d="M58 0v714h88v-714h-88z" />
    <glyph glyph-name="J" unicode="J" horiz-adv-x="426" 
d="M368 714v-509c0 -127 -32 -219 -179 -219c-119 0 -167 77 -167 163v59h84v-52c0 -58 23 -98 82 -98c80 0 92 52 92 150v506h88z" />
    <glyph glyph-name="K" unicode="K" horiz-adv-x="500" 
d="M58 0v714h88v-346h2l247 346h98l-216 -298l234 -416h-98l-193 344l-74 -101v-243h-88z" />
    <glyph glyph-name="L" unicode="L" horiz-adv-x="444" 
d="M58 0v714h88v-636h290v-78h-378z" />
    <glyph glyph-name="M" unicode="M" horiz-adv-x="704" 
d="M60 0v714h148l143 -566h2l143 566h148v-714h-88v624h-2l-158 -624h-88l-158 624h-2v-624h-88z" />
    <glyph glyph-name="N" unicode="N" horiz-adv-x="556" 
d="M58 0v714h114l236 -596h2v596h88v-714h-121l-229 578h-2v-578h-88z" />
    <glyph glyph-name="O" unicode="O" horiz-adv-x="556" 
d="M278 728c197 0 230 -191 230 -371s-33 -371 -230 -371s-230 191 -230 371s33 371 230 371zM278 656c-122 0 -138 -134 -138 -299s16 -299 138 -299s138 134 138 299s-16 299 -138 299z" />
    <glyph glyph-name="P" unicode="P" horiz-adv-x="481" 
d="M58 0v714h182c62 0 221 0 221 -205c0 -133 -85 -207 -206 -207h-109v-302h-88zM146 642v-268h105c64 0 118 44 118 139c0 78 -37 129 -124 129h-99z" />
    <glyph glyph-name="Q" unicode="Q" horiz-adv-x="556" 
d="M473 -43l-72 65c-31 -23 -72 -36 -123 -36c-197 0 -230 191 -230 371s33 371 230 371s230 -191 230 -371c0 -103 -11 -210 -58 -282l72 -66zM343 75l-69 62l49 54l66 -60c22 54 27 135 27 226c0 165 -16 299 -138 299s-138 -134 -138 -299s16 -299 138 -299
c26 0 48 6 65 17z" />
    <glyph glyph-name="R" unicode="R" horiz-adv-x="519" 
d="M58 0v714h231c112 0 183 -66 183 -179c0 -78 -27 -160 -110 -180v-2c62 -7 97 -58 101 -119l6 -122c4 -79 17 -99 38 -112h-106c-15 15 -22 68 -24 103l-6 111c-7 98 -61 104 -106 104h-119v-318h-88zM146 642v-252h87c52 0 147 0 147 138c0 70 -47 114 -129 114h-105z
" />
    <glyph glyph-name="S" unicode="S" horiz-adv-x="500" 
d="M449 529h-88c0 75 -27 127 -111 127c-74 0 -118 -40 -118 -116c0 -201 337 -81 337 -342c0 -165 -121 -212 -222 -212c-167 0 -216 86 -216 238h88c0 -80 5 -166 134 -166c70 0 124 50 124 126c0 202 -337 85 -337 347c0 66 28 197 209 197c136 0 198 -68 200 -199z" />
    <glyph glyph-name="T" unicode="T" 
d="M275 636v-636h-88v636h-179v78h447v-78h-180z" />
    <glyph glyph-name="U" unicode="U" horiz-adv-x="519" 
d="M50 212v502h88v-502c0 -105 34 -154 121 -154c94 0 122 54 122 154v502h88v-502c0 -137 -70 -226 -210 -226c-143 0 -209 79 -209 226z" />
    <glyph glyph-name="V" unicode="V" horiz-adv-x="462" 
d="M172 0l-174 714h92l140 -613h2l140 613h92l-180 -714h-112z" />
    <glyph glyph-name="W" unicode="W" horiz-adv-x="722" 
d="M150 0l-142 714h88l109 -584h2l101 584h106l101 -584h2l109 584h88l-147 -714h-107l-98 578h-2l-103 -578h-107z" />
    <glyph glyph-name="X" unicode="X" horiz-adv-x="481" 
d="M192 363l-176 351h98l130 -267l131 267h92l-178 -351l190 -363h-98l-142 286l-145 -286h-92z" />
    <glyph glyph-name="Y" unicode="Y" horiz-adv-x="462" 
d="M187 280l-189 434h97l136 -334l141 334h92l-189 -434v-280h-88v280z" />
    <glyph glyph-name="Z" unicode="Z" 
d="M23 0v74l321 562h-303v78h395v-81l-321 -555h325v-78h-417z" />
    <glyph glyph-name="bracketleft" unicode="[" horiz-adv-x="259" 
d="M78 -184v898h179v-66h-101v-766h101v-66h-179z" />
    <glyph glyph-name="backslash" unicode="\" horiz-adv-x="278" 
d="M222 -14l-232 742h66l232 -742h-66z" />
    <glyph glyph-name="bracketright" unicode="]" horiz-adv-x="259" 
d="M181 714v-898h-179v66h101v766h-101v66h179z" />
    <glyph glyph-name="asciicircum" unicode="^" horiz-adv-x="600" 
d="M47 261l229 433h48l229 -433h-66l-187 361l-187 -361h-66z" />
    <glyph glyph-name="underscore" unicode="_" horiz-adv-x="500" 
d="M0 -125v50h500v-50h-500z" />
    <glyph glyph-name="quoteleft" unicode="&#x2018;" horiz-adv-x="240" 
d="M166 566v-106h-92v87c0 76 6 144 92 167v-47c-35 -17 -44 -37 -44 -77v-24h44z" />
    <glyph glyph-name="a" unicode="a" horiz-adv-x="444" 
d="M126 374h-84c0 122 52 176 180 176c163 0 163 -98 163 -154v-299c0 -22 0 -43 26 -43c11 0 16 2 20 5v-60c-6 -1 -28 -5 -49 -5c-32 0 -72 0 -76 69h-2c-27 -48 -79 -77 -129 -77c-100 0 -146 60 -146 156c0 75 32 127 101 148l113 34c61 19 61 36 61 81
c0 50 -30 79 -86 79c-92 0 -92 -86 -92 -105v-5zM301 154v138c-31 -33 -105 -40 -143 -63c-27 -17 -41 -38 -41 -85c0 -54 19 -92 76 -92c55 0 108 47 108 102z" />
    <glyph glyph-name="b" unicode="b" 
d="M134 268c0 -110 18 -210 108 -210c78 0 98 88 98 210c0 128 -20 210 -98 210c-90 0 -108 -106 -108 -210zM55 0v714h84v-239h2c19 46 70 75 124 75c145 0 163 -170 163 -282c0 -151 -51 -282 -175 -282c-58 0 -105 40 -116 80h-2v-66h-80z" />
    <glyph glyph-name="c" unicode="c" horiz-adv-x="426" 
d="M394 373h-84c0 52 -21 111 -85 111c-52 0 -105 -26 -105 -222c0 -70 1 -210 102 -210c72 0 88 76 88 134h84c0 -85 -42 -200 -176 -200c-131 0 -186 91 -186 275c0 134 26 289 191 289c146 0 171 -115 171 -177z" />
    <glyph glyph-name="d" unicode="d" 
d="M123 268c0 -128 20 -210 98 -210c93 0 108 88 108 210c0 104 -18 210 -108 210c-78 0 -98 -82 -98 -210zM408 714v-714h-80v66h-2c-11 -40 -58 -80 -116 -80c-127 0 -175 113 -175 282c0 112 18 282 169 282c48 0 99 -29 118 -75h2v239h84z" />
    <glyph glyph-name="e" unicode="e" horiz-adv-x="444" 
d="M128 324h191v29c0 60 -19 131 -93 131c-88 0 -98 -108 -98 -140v-20zM407 258h-282c0 -82 0 -206 103 -206c80 0 91 84 91 124h84c0 -57 -34 -190 -180 -190c-131 0 -186 91 -186 275c0 134 26 289 191 289c164 0 179 -143 179 -258v-34z" />
    <glyph glyph-name="f" unicode="f" horiz-adv-x="259" 
d="M80 0v470h-78v66h78v63c0 81 35 123 116 123h61v-72h-39c-36 0 -54 -14 -54 -51v-63h92v-66h-92v-470h-84z" />
    <glyph glyph-name="g" unicode="g" 
d="M221 478c-78 0 -98 -82 -98 -210c0 -87 13 -196 97 -196c91 0 109 86 109 196c0 104 -18 210 -108 210zM408 536v-502c0 -160 -74 -218 -182 -218c-33 0 -162 0 -176 134h84c4 -49 42 -68 86 -68c108 0 104 83 104 120v70h-2c-18 -45 -68 -72 -121 -72
c-156 0 -166 197 -166 268c0 145 39 282 175 282c58 0 105 -40 116 -82h2v68h80z" />
    <glyph glyph-name="h" unicode="h" 
d="M55 0v714h84v-239h2c22 44 81 75 129 75c138 0 138 -107 138 -170v-380h-84v370c0 41 -3 108 -79 108c-45 0 -106 -30 -106 -108v-370h-84z" />
    <glyph glyph-name="i" unicode="i" horiz-adv-x="204" 
d="M60 0v536h84v-536h-84zM60 618v96h84v-96h-84z" />
    <glyph glyph-name="j" unicode="j" horiz-adv-x="204" 
d="M144 536v-588c0 -88 -37 -132 -128 -132c-13 0 -26 2 -39 3v72c10 -1 21 -3 31 -3c52 0 52 40 52 90v558h84zM144 714v-96h-84v96h84z" />
    <glyph glyph-name="k" unicode="k" horiz-adv-x="444" 
d="M264 334l191 -334h-98l-149 265l-69 -84v-181h-84v714h84v-425h2l188 247h98z" />
    <glyph glyph-name="l" unicode="l" horiz-adv-x="204" 
d="M60 0v714h84v-714h-84z" />
    <glyph glyph-name="m" unicode="m" horiz-adv-x="722" 
d="M63 0v536h80v-63h2c22 49 78 77 130 77c62 0 99 -24 116 -85c24 47 72 85 127 85c141 0 141 -107 141 -170v-380h-84v370c0 41 -3 108 -72 108c-39 0 -100 -24 -100 -108v-370h-84v370c0 41 -3 108 -72 108c-39 0 -100 -24 -100 -108v-370h-84z" />
    <glyph glyph-name="n" unicode="n" 
d="M55 0v536h80v-63h2c22 49 78 77 130 77c141 0 141 -107 141 -170v-380h-84v370c0 41 -3 108 -79 108c-45 0 -106 -30 -106 -108v-370h-84z" />
    <glyph glyph-name="o" unicode="o" horiz-adv-x="444" 
d="M29 268c0 151 39 282 193 282c155 0 193 -131 193 -282s-39 -282 -193 -282c-155 0 -193 131 -193 282zM220 52c89 0 107 100 107 216s-17 216 -107 216c-85 0 -103 -100 -103 -216s17 -216 103 -216z" />
    <glyph glyph-name="p" unicode="p" 
d="M134 268c0 -104 18 -210 108 -210c78 0 98 82 98 220c0 118 -20 200 -98 200c-93 0 -108 -88 -108 -210zM55 -176v712h80v-66h2c11 40 58 80 116 80c127 0 175 -113 175 -272c0 -122 -36 -292 -175 -292c-48 0 -93 29 -112 75h-2v-237h-84z" />
    <glyph glyph-name="q" unicode="q" 
d="M329 268c0 122 -15 210 -108 210c-78 0 -98 -82 -98 -200c0 -138 20 -220 98 -220c90 0 108 106 108 210zM324 -176v237h-2c-19 -46 -64 -75 -112 -75c-139 0 -175 146 -175 292c0 159 48 272 175 272c58 0 105 -40 116 -80h2v66h80v-712h-84z" />
    <glyph glyph-name="r" unicode="r" horiz-adv-x="296" 
d="M55 0v536h84v-80h2c24 51 56 94 116 94c17 0 29 -2 37 -6v-82c-8 1 -18 4 -45 4c-42 0 -110 -38 -110 -127v-339h-84z" />
    <glyph glyph-name="s" unicode="s" horiz-adv-x="407" 
d="M369 379h-84c0 68 -18 105 -79 105c-27 0 -87 -7 -87 -82c0 -63 66 -75 132 -97c65 -22 131 -45 131 -151c0 -113 -73 -168 -173 -168c-182 0 -184 135 -184 190h84c0 -65 18 -124 100 -124c27 0 89 13 89 89c0 72 -66 87 -131 109s-132 41 -132 152
c0 100 78 148 171 148c156 0 162 -108 163 -171z" />
    <glyph glyph-name="t" unicode="t" horiz-adv-x="259" 
d="M80 536v156h84v-156h93v-66h-93v-344c0 -43 11 -60 55 -60c18 0 28 2 37 3v-69c-11 -2 -33 -6 -68 -6c-87 0 -108 36 -108 106v370h-78v66h78z" />
    <glyph glyph-name="u" unicode="u" 
d="M408 536v-536h-80v63h-2c-22 -49 -78 -77 -130 -77c-141 0 -141 107 -141 170v380h84v-370c0 -41 3 -108 79 -108c45 0 106 30 106 108v370h84z" />
    <glyph glyph-name="v" unicode="v" horiz-adv-x="406" 
d="M155 0l-145 536h92l100 -430h2l100 430h92l-145 -536h-96z" />
    <glyph glyph-name="w" unicode="w" horiz-adv-x="648" 
d="M135 0l-125 536h88l86 -438h2l91 438h99l89 -438h2l83 438h88l-127 -536h-92l-94 438h-2l-90 -438h-98z" />
    <glyph glyph-name="x" unicode="x" horiz-adv-x="406" 
d="M153 279l-137 257h92l97 -191l98 191h92l-140 -257l145 -279h-92l-107 212l-103 -212h-92z" />
    <glyph glyph-name="y" unicode="y" horiz-adv-x="406" 
d="M168 -11l-158 547h92l106 -430h2l94 430h92l-155 -572c-20 -74 -42 -140 -143 -140c-33 0 -47 2 -61 3v66c12 -2 28 -3 49 -3c39 0 56 23 66 52z" />
    <glyph glyph-name="z" unicode="z" horiz-adv-x="389" 
d="M39 464v72h323v-70l-240 -394h238v-72h-333v66l243 398h-231z" />
    <glyph glyph-name="braceleft" unicode="{" horiz-adv-x="259" 
d="M2 235v60c44 0 76 41 76 111v178c0 99 51 130 108 130h71v-66h-51c-49 0 -50 -45 -50 -82v-172c0 -97 -66 -125 -88 -128v-2c22 -3 88 -31 88 -128v-172c0 -37 1 -82 50 -82h51v-66h-71c-57 0 -108 31 -108 130v178c0 70 -32 111 -76 111z" />
    <glyph glyph-name="bar" unicode="|" horiz-adv-x="222" 
d="M78 -14v742h66v-742h-66z" />
    <glyph glyph-name="braceright" unicode="}" horiz-adv-x="259" 
d="M257 295v-60c-44 0 -76 -41 -76 -111v-178c0 -99 -51 -130 -108 -130h-71v66h51c49 0 50 45 50 82v172c0 97 66 125 88 128v2c-22 3 -88 31 -88 128v172c0 37 -1 82 -50 82h-51v66h71c57 0 108 -31 108 -130v-178c0 -70 32 -111 76 -111z" />
    <glyph glyph-name="asciitilde" unicode="~" horiz-adv-x="600" 
d="M98 185l-42 46c30 42 71 93 136 93c36 0 55 -2 104 -29c33 -18 70 -47 107 -47c46 0 81 46 99 73l42 -45c-30 -43 -71 -94 -136 -94c-36 0 -55 2 -104 29c-33 18 -70 47 -107 47c-46 0 -81 -46 -99 -73z" />
    <glyph glyph-name="exclamdown" unicode="&#xa1;" horiz-adv-x="258" 
d="M159 352l16 -528h-92l16 528h60zM175 538v-96h-92v96h92z" />
    <glyph glyph-name="cent" unicode="&#xa2;" horiz-adv-x="480" 
d="M227 52v432c-43 -10 -80 -56 -80 -222c0 -68 1 -192 80 -210zM227 -99v85c-118 7 -168 98 -168 275c0 128 23 275 168 289v70h42v-70c129 -8 152 -116 152 -177h-84c0 49 -17 102 -68 111v-432c55 13 68 79 68 134h84c0 -82 -37 -188 -152 -200v-85h-42z" />
    <glyph glyph-name="sterling" unicode="&#xa3;" horiz-adv-x="480" 
d="M447 505h-84c0 74 -29 137 -114 137c-86 0 -113 -59 -113 -105c0 -44 30 -104 56 -155h164v-60h-142c10 -20 17 -44 17 -68c0 -79 -67 -137 -127 -187l2 -2c26 13 57 28 85 28c26 0 43 -7 61 -14c18 -8 37 -15 65 -15c33 0 52 8 107 39l37 -67c-41 -29 -88 -50 -138 -50
c-67 0 -112 41 -170 41c-17 0 -34 -4 -49 -11l-47 -22l-38 65c59 48 124 102 124 186c0 28 -7 56 -21 77h-95v60h70l-16 31c-19 37 -33 77 -33 115c0 115 89 180 201 180c117 0 198 -64 198 -203z" />
    <glyph glyph-name="fraction" unicode="&#x2044;" horiz-adv-x="167" 
d="M-164 -31l435 756h60l-435 -756h-60z" />
    <glyph glyph-name="yen" unicode="&#xa5;" horiz-adv-x="480" 
d="M200 0v153h-147v60h147v60l-10 22h-137v60h110l-154 339h97l136 -324l141 324h88l-150 -339h110v-60h-137l-10 -22v-60h147v-60h-147v-153h-84z" />
    <glyph glyph-name="florin" unicode="&#x192;" horiz-adv-x="480" 
d="M-17 -172l14 66c8 -2 28 -4 49 -4c46 0 65 20 79 90l79 400h-104l11 60h104l33 156c19 89 77 118 166 118c20 0 35 -2 48 -4l-14 -66c-7 2 -20 4 -35 4c-74 0 -83 -46 -99 -130l-15 -78h109l-11 -60h-109l-80 -411c-19 -95 -68 -145 -168 -145c-20 0 -39 1 -57 4z" />
    <glyph glyph-name="section" unicode="&#xa7;" horiz-adv-x="482" 
d="M413 578h-88c0 54 -40 84 -88 84c-59 0 -85 -42 -85 -75c0 -44 41 -71 80 -95l100 -60c65 -40 120 -80 120 -160c0 -65 -41 -114 -89 -147c41 -26 58 -76 58 -124c0 -101 -83 -155 -174 -155c-149 0 -183 107 -183 174h84c0 -61 32 -108 99 -108c73 0 86 58 86 85
c0 48 -42 81 -83 107l-113 70c-55 34 -107 83 -107 146c0 73 41 106 98 142c-39 25 -64 74 -64 120c0 97 86 146 173 146c162 0 172 -110 176 -150zM184 245l66 -42l60 -41c20 12 58 41 58 95c0 45 -37 78 -77 102l-110 68c-27 -20 -67 -48 -67 -96c0 -39 36 -65 70 -86z
" />
    <glyph glyph-name="currency" unicode="&#xa4;" horiz-adv-x="480" 
d="M92 347c0 -87 66 -154 148 -154s148 67 148 154s-66 154 -148 154s-148 -67 -148 -154zM18 167l47 47c-28 37 -45 83 -45 133s17 95 45 132l-47 47l43 43l47 -47c37 29 83 45 132 45c50 0 96 -17 132 -45l47 47l43 -43l-47 -47c29 -37 45 -83 45 -132
c0 -50 -17 -96 -46 -132l48 -48l-42 -42l-48 48c-36 -29 -82 -46 -132 -46s-96 17 -133 45l-47 -47z" />
    <glyph glyph-name="quotesingle" unicode="'" horiz-adv-x="240" 
d="M87 460v254h66v-254h-66z" />
    <glyph glyph-name="quotedblleft" unicode="&#x201c;" horiz-adv-x="407" 
d="M328 566v-106h-92v87c0 76 6 144 92 167v-47c-35 -17 -44 -37 -44 -77v-24h44zM171 566v-106h-92v87c0 76 6 144 92 167v-47c-35 -17 -44 -37 -44 -77v-24h44z" />
    <glyph glyph-name="guillemotleft" unicode="&#xab;" horiz-adv-x="389" 
d="M198 245v78l142 143v-88l-94 -94l94 -94v-88zM49 245v78l142 143v-88l-94 -94l94 -94v-88z" />
    <glyph glyph-name="guilsinglleft" unicode="&#x2039;" horiz-adv-x="240" 
d="M49 245v78l142 143v-88l-94 -94l94 -94v-88z" />
    <glyph glyph-name="guilsinglright" unicode="&#x203a;" horiz-adv-x="240" 
d="M191 323v-78l-142 -143v88l94 94l-94 94v88z" />
    <glyph glyph-name="fi" unicode="&#xfb01;" 
d="M80 0v470h-78v66h78v63c0 81 35 123 116 123h61v-72h-39c-36 0 -54 -14 -54 -51v-63h92v-66h-92v-470h-84zM319 0v536h84v-536h-84zM319 618v96h84v-96h-84z" />
    <glyph glyph-name="fl" unicode="&#xfb02;" 
d="M80 0v470h-78v66h78v63c0 81 35 123 116 123h61v-72h-39c-36 0 -54 -14 -54 -51v-63h92v-66h-92v-470h-84zM319 0v714h84v-714h-84z" />
    <glyph glyph-name="endash" unicode="&#x2013;" horiz-adv-x="500" 
d="M0 248v72h500v-72h-500z" />
    <glyph glyph-name="dagger" unicode="&#x2020;" horiz-adv-x="482" 
d="M199 508v206h84v-206h172v-72h-172v-576h-84v576h-172v72h172z" />
    <glyph glyph-name="daggerdbl" unicode="&#x2021;" horiz-adv-x="482" 
d="M199 521v193h84v-193h172v-72h-172v-317h172v-72h-172v-200h-84v200h-172v72h172v317h-172v72h172z" />
    <glyph glyph-name="periodcentered" unicode="&#xb7;" horiz-adv-x="240" 
d="M64 327c0 31 25 56 56 56s56 -25 56 -56s-25 -56 -56 -56s-56 25 -56 56z" />
    <glyph glyph-name="paragraph" unicode="&#xb6;" horiz-adv-x="556" 
d="M411 -140v800h-100v-800h-66v462c-122 0 -209 82 -209 186c0 130 96 206 236 206h205v-854h-66z" />
    <glyph glyph-name="bullet" unicode="&#x2022;" horiz-adv-x="500" 
d="M72 357c0 98 80 178 178 178s178 -80 178 -178s-80 -178 -178 -178s-178 80 -178 178z" />
    <glyph glyph-name="quotesinglbase" unicode="&#x201a;" horiz-adv-x="240" 
d="M74 0v106h92v-87c0 -76 -6 -144 -92 -167v47c35 17 44 37 44 77v24h-44z" />
    <glyph glyph-name="quotedblbase" unicode="&#x201e;" horiz-adv-x="407" 
d="M328 106v-87c0 -76 -6 -144 -92 -167v47c35 17 44 37 44 77v24h-44v106h92zM171 106v-87c0 -76 -6 -144 -92 -167v47c35 17 44 37 44 77v24h-44v106h92z" />
    <glyph glyph-name="quotedblright" unicode="&#x201d;" horiz-adv-x="407" 
d="M328 714v-87c0 -76 -6 -144 -92 -167v47c35 17 44 37 44 77v24h-44v106h92zM171 714v-87c0 -76 -6 -144 -92 -167v47c35 17 44 37 44 77v24h-44v106h92z" />
    <glyph glyph-name="guillemotright" unicode="&#xbb;" horiz-adv-x="389" 
d="M340 323v-78l-142 -143v88l94 94l-94 94v88zM191 323v-78l-142 -143v88l94 94l-94 94v88z" />
    <glyph glyph-name="ellipsis" unicode="&#x2026;" horiz-adv-x="1000" 
d="M121 0v106h92v-106h-92zM454 0v106h92v-106h-92zM787 0v106h92v-106h-92z" />
    <glyph glyph-name="perthousand" unicode="&#x2030;" horiz-adv-x="1037" 
d="M860 40c56 0 59 56 59 138s-3 138 -59 138s-59 -56 -59 -138s3 -138 59 -138zM169 -14l310 722h70l-310 -722h-70zM177 378c56 0 59 56 59 138s-3 138 -59 138s-59 -56 -59 -138s3 -138 59 -138zM860 -14c-119 0 -131 92 -131 192s12 192 131 192s131 -92 131 -192
s-12 -192 -131 -192zM177 324c-119 0 -131 92 -131 192s12 192 131 192s131 -92 131 -192s-12 -192 -131 -192zM551 40c56 0 59 56 59 138s-3 138 -59 138s-59 -56 -59 -138s3 -138 59 -138zM551 -14c-119 0 -131 92 -131 192s12 192 131 192s131 -92 131 -192
s-12 -192 -131 -192z" />
    <glyph glyph-name="questiondown" unicode="&#xbf;" horiz-adv-x="444" 
d="M325 34h84c0 -118 -57 -218 -186 -218c-120 0 -188 81 -188 188c0 51 18 102 50 141c10 12 69 77 78 88c25 32 32 70 32 100v19h78c0 -40 0 -87 -19 -123c-23 -43 -78 -98 -101 -128s-30 -57 -30 -102c0 -59 32 -111 97 -111c97 0 105 97 105 146zM279 538v-96h-92v96h92
z" />
    <glyph glyph-name="grave" unicode="`" horiz-adv-x="204" 
d="M-16 752h98l70 -142h-60z" />
    <glyph glyph-name="acute" unicode="&#xb4;" horiz-adv-x="204" 
d="M52 610l70 142h98l-108 -142h-60z" />
    <glyph glyph-name="circumflex" unicode="&#x2c6;" horiz-adv-x="204" 
d="M-37 610l101 142h77l100 -142h-78l-61 88l-61 -88h-78z" />
    <glyph glyph-name="tilde" unicode="&#x2dc;" horiz-adv-x="204" 
d="M195 740h54c0 -50 -29 -111 -86 -111c-42 0 -94 38 -115 38c-26 0 -36 -27 -39 -45h-54c0 59 40 111 93 111c19 0 40 -9 60 -19c20 -9 39 -19 52 -19c26 0 31 27 35 45z" />
    <glyph glyph-name="macron" unicode="&#xaf;" horiz-adv-x="204" 
d="M-30 655v54h264v-54h-264z" />
    <glyph glyph-name="breve" unicode="&#x2d8;" horiz-adv-x="204" 
d="M-23 745h48c0 -37 41 -67 77 -67s77 30 77 67h48c0 -41 -24 -127 -125 -127s-125 86 -125 127z" />
    <glyph glyph-name="dotaccent" unicode="&#x2d9;" horiz-adv-x="204" 
d="M63 634v101h78v-101h-78z" />
    <glyph glyph-name="dieresis" unicode="&#xa8;" horiz-adv-x="204" 
d="M-18 634v101h78v-101h-78zM144 634v101h78v-101h-78z" />
    <glyph glyph-name="ring" unicode="&#x2da;" horiz-adv-x="204" 
d="M3 690c0 55 44 99 99 99s99 -44 99 -99s-44 -99 -99 -99s-99 44 -99 99zM45 690c0 -31 26 -57 57 -57s57 26 57 57s-26 57 -57 57s-57 -26 -57 -57z" />
    <glyph glyph-name="cedilla" unicode="&#xb8;" horiz-adv-x="204" 
d="M-1 -192l15 34c3 -1 48 -12 64 -12c41 0 55 19 55 41c0 23 -23 37 -47 37c-21 0 -34 -4 -38 -7l-15 18l59 87h42l-41 -60l2 -2c7 3 23 6 30 6c34 0 80 -21 80 -76c0 -51 -51 -86 -107 -86c-37 0 -77 7 -99 20z" />
    <glyph glyph-name="hungarumlaut" unicode="&#x2dd;" horiz-adv-x="204" 
d="M-50 610l70 142h98l-108 -142h-60zM114 610l70 142h98l-108 -142h-60z" />
    <glyph glyph-name="ogonek" unicode="&#x2db;" horiz-adv-x="204" 
d="M127 6h53c-87 -63 -104 -96 -104 -130c0 -28 14 -46 40 -46s44 10 66 21l18 -35c-28 -23 -73 -28 -102 -28c-65 0 -94 30 -94 78c0 53 42 102 123 140z" />
    <glyph glyph-name="caron" unicode="&#x2c7;" horiz-adv-x="204" 
d="M241 752l-101 -142h-77l-100 142h78l61 -88l61 88h78z" />
    <glyph glyph-name="emdash" unicode="&#x2014;" horiz-adv-x="1000" 
d="M0 248v72h1000v-72h-1000z" />
    <glyph glyph-name="AE" unicode="&#xc6;" horiz-adv-x="722" 
d="M322 642l-140 -374h150v374h-10zM-8 0l276 714h418v-78h-266v-224h250v-78h-250v-256h278v-78h-366v196h-175l-73 -196h-92z" />
    <glyph glyph-name="ordfeminine" unicode="&#xaa;" horiz-adv-x="289" 
d="M251 612v-176c0 -13 0 -27 17 -27c7 0 11 2 13 3v-42c-4 -1 -18 -3 -38 -3c-26 0 -49 12 -50 46h-2c-16 -29 -50 -46 -88 -46c-62 0 -95 39 -95 93c0 48 21 78 72 92l73 20c38 11 38 22 38 45c0 30 -20 43 -54 43c-59 0 -59 -47 -59 -58v-4h-60c0 78 34 110 127 110
c106 0 106 -62 106 -96zM191 470v77c-20 -20 -70 -22 -93 -38c-15 -10 -24 -19 -24 -45s12 -49 46 -49c36 0 71 28 71 55z" />
    <glyph glyph-name="Lslash" unicode="&#x141;" horiz-adv-x="444" 
d="M-8 197v72l66 47v398h88v-335l194 139v-72l-194 -139v-229h290v-78h-378v244z" />
    <glyph glyph-name="Oslash" unicode="&#xd8;" horiz-adv-x="556" 
d="M161 153l197 473c-19 19 -45 30 -80 30c-122 0 -138 -134 -138 -299c0 -79 4 -150 21 -204zM395 562l-196 -474c19 -19 45 -30 79 -30c122 0 138 134 138 299c0 80 -4 152 -21 205zM88 -24l33 80c-60 71 -73 188 -73 301c0 180 33 371 230 371c46 0 82 -10 111 -28l24 59
l54 -22l-32 -77c60 -71 73 -189 73 -303c0 -180 -33 -371 -230 -371c-45 0 -81 10 -110 28l-26 -62z" />
    <glyph glyph-name="OE" unicode="&#x152;" horiz-adv-x="796" 
d="M500 334v-256h272v-78h-358v63h-2c-18 -48 -74 -77 -134 -77c-197 0 -230 178 -230 371c0 180 33 371 230 371c51 0 115 -23 138 -69h2v55h342v-78h-260v-224h244v-78h-244zM412 232v231c0 101 -4 193 -134 193c-126 0 -142 -134 -142 -299s16 -299 142 -299
c114 0 134 80 134 174z" />
    <glyph glyph-name="ordmasculine" unicode="&#xba;" horiz-adv-x="289" 
d="M143 708c105 0 130 -82 130 -169c0 -90 -26 -172 -130 -172c-102 0 -127 82 -127 172c0 87 25 169 127 169zM143 415c52 0 64 64 64 124c0 58 -11 121 -64 121c-49 0 -61 -63 -61 -121c0 -60 11 -124 61 -124z" />
    <glyph glyph-name="ae" unicode="&#xe6;" horiz-adv-x="667" 
d="M371 324h182v29c0 60 -19 131 -89 131c-83 0 -93 -108 -93 -140v-20zM553 176h84c0 -57 -34 -190 -169 -190c-112 0 -141 78 -144 98h-2c-26 -57 -70 -98 -149 -98c-89 0 -147 60 -147 156c0 75 37 128 102 148l125 38c32 10 37 32 37 77c0 50 -24 79 -80 79
c-86 0 -86 -86 -86 -105v-5h-84c0 122 55 176 176 176c70 0 116 -29 128 -74h2c18 45 75 74 126 74c154 0 169 -143 169 -258v-34h-273c0 -82 0 -206 94 -206c80 0 91 84 91 124zM290 174v94v11h-2c-7 -14 -111 -42 -130 -49c-28 -10 -44 -34 -44 -85c0 -49 22 -93 75 -93
c96 0 101 96 101 122z" />
    <glyph glyph-name="dotlessi" unicode="&#x131;" horiz-adv-x="204" 
d="M60 0v536h84v-536h-84z" />
    <glyph glyph-name="lslash" unicode="&#x142;" horiz-adv-x="204" 
d="M60 0v276l-60 -64v78l60 64v360h84v-271l60 63v-78l-60 -63v-365h-84z" />
    <glyph glyph-name="oslash" unicode="&#xf8;" horiz-adv-x="444" 
d="M310 407l-143 -336c13 -12 31 -19 53 -19c89 0 107 100 107 216c0 51 -4 101 -17 139zM134 126l143 337c-16 14 -34 21 -57 21c-85 0 -103 -100 -103 -216c0 -52 4 -102 17 -142zM64 -40l32 76c-51 50 -67 133 -67 232c0 151 39 282 193 282c33 0 61 -6 84 -18l26 61
l48 -21l-30 -71c50 -55 65 -136 65 -233c0 -151 -39 -282 -193 -282c-33 0 -61 6 -84 18l-27 -63z" />
    <glyph glyph-name="oe" unicode="&#x153;" horiz-adv-x="722" 
d="M683 292v-34h-273c0 -82 0 -206 94 -206c80 0 91 84 91 124h84c0 -57 -34 -190 -169 -190c-113 0 -139 83 -142 92c-25 -57 -78 -92 -141 -92c-150 0 -188 137 -188 282s39 282 188 282c74 0 114 -29 147 -91c25 56 81 91 140 91c154 0 169 -143 169 -258zM332 268
c0 110 -17 216 -105 216c-82 0 -100 -106 -100 -216s17 -216 100 -216c87 0 105 106 105 216zM413 344v-20h182v29c0 60 -19 131 -89 131c-83 0 -93 -108 -93 -140z" />
    <glyph glyph-name="germandbls" unicode="&#xdf;" 
d="M48 0v511c0 124 37 211 177 211c95 0 172 -50 172 -163c0 -64 -34 -134 -106 -147v-2c95 0 143 -86 143 -186c0 -107 -52 -224 -179 -224h-59v72h58c75 0 92 95 92 152c0 90 -41 150 -107 150c-11 0 -30 -1 -40 -3v69h20c51 0 94 36 94 105c0 50 -17 111 -88 111
c-87 0 -93 -66 -93 -131v-525h-84z" />
    <glyph glyph-name="onesuperior" unicode="&#xb9;" horiz-adv-x="312" 
d="M128 280v313h-96v48c57 0 111 7 113 67h49v-428h-66z" />
    <glyph glyph-name="logicalnot" unicode="&#xac;" horiz-adv-x="600" 
d="M487 106v216h-440v66h506v-282h-66z" />
    <glyph glyph-name="mu" unicode="&#xb5;" 
d="M408 536v-536h-80v63h-2c-22 -49 -78 -77 -130 -77c-23 0 -43 3 -57 14v-176h-84v712h84v-370c0 -41 3 -108 79 -108c45 0 106 30 106 108v370h84z" />
    <glyph glyph-name="trademark" unicode="&#x2122;" horiz-adv-x="990" 
d="M185 302v352h-133v60h329v-60h-130v-352h-66zM848 302v340h-2l-139 -340h-39l-139 340h-2v-340h-66v412h98l130 -316l127 316h98v-412h-66z" />
    <glyph glyph-name="Eth" unicode="&#xd0;" horiz-adv-x="556" 
d="M67 0v340h-58v66h58v308h191c222 0 250 -160 250 -357c0 -180 -45 -357 -241 -357h-200zM155 72h92c152 0 169 156 169 284c0 138 -9 286 -169 286h-92v-236h134v-66h-134v-268z" />
    <glyph glyph-name="onehalf" unicode="&#xbd;" horiz-adv-x="721" 
d="M74 -31l434 756h60l-434 -756h-60zM30 593v48c57 0 111 7 113 67h49v-428h-66v313h-96zM681 0h-261c0 80 49 133 100 175l37 30c38 30 62 56 62 103c0 35 -18 60 -66 60c-57 0 -62 -51 -62 -76h-72c0 77 35 136 139 136c77 0 133 -38 133 -114c0 -66 -29 -100 -81 -141
l-62 -50c-26 -21 -40 -43 -47 -63h180v-60z" />
    <glyph glyph-name="plusminus" unicode="&#xb1;" horiz-adv-x="600" 
d="M47 295v66h220v145h66v-145h220v-66h-220v-145h-66v145h-220zM47 0v66h506v-66h-506z" />
    <glyph glyph-name="Thorn" unicode="&#xde;" horiz-adv-x="481" 
d="M58 0v714h88v-140h94c62 0 221 0 221 -205c0 -133 -85 -207 -206 -207h-109v-162h-88zM146 502v-268h105c64 0 118 44 118 139c0 78 -37 129 -124 129h-99z" />
    <glyph glyph-name="onequarter" unicode="&#xbc;" horiz-adv-x="721" 
d="M454 153h112v185h-2zM400 159l160 269h72v-275h47v-54h-47v-99h-66v99h-166v60zM93 -31l434 756h60l-434 -756h-60zM32 593v48c57 0 111 7 113 67h49v-428h-66v313h-96z" />
    <glyph glyph-name="divide" unicode="&#xf7;" horiz-adv-x="600" 
d="M47 220v66h506v-66h-506zM244 464c0 31 25 56 56 56s56 -25 56 -56s-25 -56 -56 -56s-56 25 -56 56zM244 42c0 31 25 56 56 56s56 -25 56 -56s-25 -56 -56 -56s-56 25 -56 56z" />
    <glyph glyph-name="brokenbar" unicode="&#xa6;" horiz-adv-x="222" 
d="M78 -14v294h66v-294h-66zM78 434v294h66v-294h-66z" />
    <glyph glyph-name="degree" unicode="&#xb0;" horiz-adv-x="400" 
d="M51 559c0 86 63 149 149 149s149 -63 149 -149s-63 -149 -149 -149s-149 63 -149 149zM105 559c0 -52 43 -95 95 -95s95 43 95 95s-43 95 -95 95s-95 -43 -95 -95z" />
    <glyph glyph-name="thorn" unicode="&#xfe;" 
d="M134 268c0 -104 18 -210 108 -210c78 0 98 82 98 220c0 118 -20 200 -98 200c-93 0 -108 -88 -108 -210zM55 -176v890h84v-239h2c13 46 67 75 112 75c127 0 175 -113 175 -272c0 -122 -36 -292 -175 -292c-48 0 -93 29 -112 75h-2v-237h-84z" />
    <glyph glyph-name="threequarters" unicode="&#xbe;" horiz-adv-x="721" 
d="M476 153h112v185h-2zM422 159l160 269h72v-275h47v-54h-47v-99h-66v99h-166v60zM145 -31l434 756h60l-434 -756h-60zM120 474v54h24c48 0 72 30 72 69c0 30 -18 57 -55 57c-56 0 -62 -46 -62 -69h-72c0 73 37 123 136 123c103 0 125 -63 125 -111c0 -43 -29 -81 -84 -92
v-2c57 -9 96 -39 96 -99c0 -78 -43 -131 -136 -131c-133 0 -144 99 -144 118v5h72c0 -31 20 -69 70 -69c27 0 66 16 66 73c0 45 -26 74 -80 74h-28z" />
    <glyph glyph-name="twosuperior" unicode="&#xb2;" horiz-adv-x="312" 
d="M282 280h-261c0 80 49 133 100 175l37 30c38 30 62 56 62 103c0 35 -18 60 -66 60c-57 0 -62 -51 -62 -76h-72c0 77 35 136 139 136c77 0 133 -38 133 -114c0 -66 -29 -100 -81 -141l-62 -50c-26 -21 -40 -43 -47 -63h180v-60z" />
    <glyph glyph-name="registered" unicode="&#xae;" horiz-adv-x="800" 
d="M252 138v434h168c96 0 148 -41 148 -127c0 -77 -51 -113 -117 -120l124 -187h-66l-120 182h-71v-182h-66zM318 380h71c60 0 113 3 113 68c0 57 -48 64 -94 64h-90v-132zM29 357c0 205 166 371 371 371s371 -166 371 -371s-166 -371 -371 -371s-371 166 -371 371zM400 46
c169 0 305 139 305 311s-136 311 -305 311s-305 -139 -305 -311s136 -311 305 -311z" />
    <glyph glyph-name="minus" unicode="&#x2212;" horiz-adv-x="600" 
d="M47 220v66h506v-66h-506z" />
    <glyph glyph-name="eth" unicode="&#xf0;" horiz-adv-x="444" 
d="M220 470c-85 0 -103 -106 -103 -202c0 -116 17 -216 103 -216c89 0 107 100 107 216c0 96 -17 202 -107 202zM120 595l-38 42l71 40c-23 23 -49 45 -77 67l64 28c26 -21 50 -41 72 -61l74 42l38 -42l-70 -40c102 -102 161 -215 161 -403c0 -151 -39 -282 -193 -282
c-155 0 -193 131 -193 282c0 145 39 268 193 268c18 0 40 -5 59 -17h2c-27 41 -56 80 -90 117z" />
    <glyph glyph-name="multiply" unicode="&#xd7;" horiz-adv-x="600" 
d="M480 30l-180 180l-181 -180l-42 42l181 181l-181 181l42 42l181 -180l180 180l43 -42l-181 -181l181 -181z" />
    <glyph glyph-name="threesuperior" unicode="&#xb3;" horiz-adv-x="312" 
d="M116 474v54h24c48 0 72 30 72 69c0 30 -18 57 -55 57c-56 0 -62 -46 -62 -69h-72c0 73 37 123 136 123c103 0 125 -63 125 -111c0 -43 -29 -81 -84 -92v-2c57 -9 96 -39 96 -99c0 -78 -43 -131 -136 -131c-133 0 -144 99 -144 118v5h72c0 -31 20 -69 70 -69
c27 0 66 16 66 73c0 45 -26 74 -80 74h-28z" />
    <glyph glyph-name="copyright" unicode="&#xa9;" horiz-adv-x="800" 
d="M543 279h60c-14 -102 -98 -155 -197 -155c-136 0 -219 95 -219 230s83 230 219 230c99 0 183 -51 197 -155h-60c-11 53 -63 95 -137 95c-94 0 -153 -76 -153 -170s59 -170 153 -170c74 0 126 42 137 95zM29 357c0 205 166 371 371 371s371 -166 371 -371
s-166 -371 -371 -371s-371 166 -371 371zM400 46c169 0 305 139 305 311s-136 311 -305 311s-305 -139 -305 -311s136 -311 305 -311z" />
    <glyph glyph-name="Aacute" unicode="&#xc1;" horiz-adv-x="500" 
d="M-8 0l206 714h118l192 -714h-92l-51 196h-228l-53 -196h-92zM254 613l-99 -345h192l-91 345h-2zM207 753l70 142h98l-108 -142h-60z" />
    <glyph glyph-name="Acircumflex" unicode="&#xc2;" horiz-adv-x="500" 
d="M-8 0l206 714h118l192 -714h-92l-51 196h-228l-53 -196h-92zM254 613l-99 -345h192l-91 345h-2zM118 753l101 142h77l100 -142h-78l-61 88l-61 -88h-78z" />
    <glyph glyph-name="Adieresis" unicode="&#xc4;" horiz-adv-x="500" 
d="M-8 0l206 714h118l192 -714h-92l-51 196h-228l-53 -196h-92zM254 613l-99 -345h192l-91 345h-2zM137 777v101h78v-101h-78zM299 777v101h78v-101h-78z" />
    <glyph glyph-name="Agrave" unicode="&#xc0;" horiz-adv-x="500" 
d="M-8 0l206 714h118l192 -714h-92l-51 196h-228l-53 -196h-92zM254 613l-99 -345h192l-91 345h-2zM139 895h98l70 -142h-60z" />
    <glyph glyph-name="Aring" unicode="&#xc5;" horiz-adv-x="500" 
d="M-8 0l206 714h118l192 -714h-92l-51 196h-228l-53 -196h-92zM254 613l-99 -345h192l-91 345h-2zM158 833c0 55 44 99 99 99s99 -44 99 -99s-44 -99 -99 -99s-99 44 -99 99zM200 833c0 -31 26 -57 57 -57s57 26 57 57s-26 57 -57 57s-57 -26 -57 -57z" />
    <glyph glyph-name="Atilde" unicode="&#xc3;" horiz-adv-x="500" 
d="M-8 0l206 714h118l192 -714h-92l-51 196h-228l-53 -196h-92zM254 613l-99 -345h192l-91 345h-2zM350 883h54c0 -50 -29 -111 -86 -111c-42 0 -94 38 -115 38c-26 0 -36 -27 -39 -45h-54c0 59 40 111 93 111c19 0 40 -9 60 -19c20 -9 39 -19 52 -19c26 0 31 27 35 45z" />
    <glyph glyph-name="Ccedilla" unicode="&#xc7;" horiz-adv-x="519" 
d="M198 -81l46 69c-172 21 -196 200 -196 369c0 180 33 371 230 371c146 0 207 -82 211 -222h-92c-2 81 -28 150 -119 150c-122 0 -138 -134 -138 -299s16 -299 138 -299c107 0 122 100 125 187h92c-8 -133 -60 -256 -210 -259l-27 -40l2 -2c7 3 23 6 30 6
c34 0 80 -21 80 -76c0 -51 -51 -86 -107 -86c-37 0 -77 7 -99 20l15 34c3 -1 48 -12 64 -12c41 0 55 19 55 41c0 23 -23 37 -47 37c-21 0 -34 -4 -38 -7z" />
    <glyph glyph-name="Eacute" unicode="&#xc9;" 
d="M58 0v714h369v-78h-281v-224h265v-78h-265v-256h293v-78h-381zM194 753l70 142h98l-108 -142h-60z" />
    <glyph glyph-name="Ecircumflex" unicode="&#xca;" 
d="M58 0v714h369v-78h-281v-224h265v-78h-265v-256h293v-78h-381zM105 753l101 142h77l100 -142h-78l-61 88l-61 -88h-78z" />
    <glyph glyph-name="Edieresis" unicode="&#xcb;" 
d="M58 0v714h369v-78h-281v-224h265v-78h-265v-256h293v-78h-381zM124 777v101h78v-101h-78zM286 777v101h78v-101h-78z" />
    <glyph glyph-name="Egrave" unicode="&#xc8;" 
d="M58 0v714h369v-78h-281v-224h265v-78h-265v-256h293v-78h-381zM126 895h98l70 -142h-60z" />
    <glyph glyph-name="Iacute" unicode="&#xcd;" horiz-adv-x="204" 
d="M58 0v714h88v-714h-88zM52 753l70 142h98l-108 -142h-60z" />
    <glyph glyph-name="Icircumflex" unicode="&#xce;" horiz-adv-x="204" 
d="M58 0v714h88v-714h-88zM-37 753l101 142h77l100 -142h-78l-61 88l-61 -88h-78z" />
    <glyph glyph-name="Idieresis" unicode="&#xcf;" horiz-adv-x="204" 
d="M58 0v714h88v-714h-88zM-18 777v101h78v-101h-78zM144 777v101h78v-101h-78z" />
    <glyph glyph-name="Igrave" unicode="&#xcc;" horiz-adv-x="204" 
d="M58 0v714h88v-714h-88zM-16 895h98l70 -142h-60z" />
    <glyph glyph-name="Ntilde" unicode="&#xd1;" horiz-adv-x="556" 
d="M58 0v714h114l236 -596h2v596h88v-714h-121l-229 578h-2v-578h-88zM371 883h54c0 -50 -29 -111 -86 -111c-42 0 -94 38 -115 38c-26 0 -36 -27 -39 -45h-54c0 59 40 111 93 111c19 0 40 -9 60 -19c20 -9 39 -19 52 -19c26 0 31 27 35 45z" />
    <glyph glyph-name="Oacute" unicode="&#xd3;" horiz-adv-x="556" 
d="M278 728c197 0 230 -191 230 -371s-33 -371 -230 -371s-230 191 -230 371s33 371 230 371zM278 656c-122 0 -138 -134 -138 -299s16 -299 138 -299s138 134 138 299s-16 299 -138 299zM228 753l70 142h98l-108 -142h-60z" />
    <glyph glyph-name="Ocircumflex" unicode="&#xd4;" horiz-adv-x="556" 
d="M278 728c197 0 230 -191 230 -371s-33 -371 -230 -371s-230 191 -230 371s33 371 230 371zM278 656c-122 0 -138 -134 -138 -299s16 -299 138 -299s138 134 138 299s-16 299 -138 299zM139 753l101 142h77l100 -142h-78l-61 88l-61 -88h-78z" />
    <glyph glyph-name="Odieresis" unicode="&#xd6;" horiz-adv-x="556" 
d="M278 728c197 0 230 -191 230 -371s-33 -371 -230 -371s-230 191 -230 371s33 371 230 371zM278 656c-122 0 -138 -134 -138 -299s16 -299 138 -299s138 134 138 299s-16 299 -138 299zM158 777v101h78v-101h-78zM320 777v101h78v-101h-78z" />
    <glyph glyph-name="Ograve" unicode="&#xd2;" horiz-adv-x="556" 
d="M278 728c197 0 230 -191 230 -371s-33 -371 -230 -371s-230 191 -230 371s33 371 230 371zM278 656c-122 0 -138 -134 -138 -299s16 -299 138 -299s138 134 138 299s-16 299 -138 299zM160 895h98l70 -142h-60z" />
    <glyph glyph-name="Otilde" unicode="&#xd5;" horiz-adv-x="556" 
d="M278 728c197 0 230 -191 230 -371s-33 -371 -230 -371s-230 191 -230 371s33 371 230 371zM278 656c-122 0 -138 -134 -138 -299s16 -299 138 -299s138 134 138 299s-16 299 -138 299zM371 883h54c0 -50 -29 -111 -86 -111c-42 0 -94 38 -115 38c-26 0 -36 -27 -39 -45
h-54c0 59 40 111 93 111c19 0 40 -9 60 -19c20 -9 39 -19 52 -19c26 0 31 27 35 45z" />
    <glyph glyph-name="Scaron" unicode="&#x160;" horiz-adv-x="500" 
d="M449 529h-88c0 75 -27 127 -111 127c-74 0 -118 -40 -118 -116c0 -201 337 -81 337 -342c0 -165 -121 -212 -222 -212c-167 0 -216 86 -216 238h88c0 -80 5 -166 134 -166c70 0 124 50 124 126c0 202 -337 85 -337 347c0 66 28 197 209 197c136 0 198 -68 200 -199z
M389 895l-101 -142h-77l-100 142h78l61 -88l61 88h78z" />
    <glyph glyph-name="Uacute" unicode="&#xda;" horiz-adv-x="519" 
d="M50 212v502h88v-502c0 -105 34 -154 121 -154c94 0 122 54 122 154v502h88v-502c0 -137 -70 -226 -210 -226c-143 0 -209 79 -209 226zM210 753l70 142h98l-108 -142h-60z" />
    <glyph glyph-name="Ucircumflex" unicode="&#xdb;" horiz-adv-x="519" 
d="M50 212v502h88v-502c0 -105 34 -154 121 -154c94 0 122 54 122 154v502h88v-502c0 -137 -70 -226 -210 -226c-143 0 -209 79 -209 226zM121 753l101 142h77l100 -142h-78l-61 88l-61 -88h-78z" />
    <glyph glyph-name="Udieresis" unicode="&#xdc;" horiz-adv-x="519" 
d="M50 212v502h88v-502c0 -105 34 -154 121 -154c94 0 122 54 122 154v502h88v-502c0 -137 -70 -226 -210 -226c-143 0 -209 79 -209 226zM140 777v101h78v-101h-78zM302 777v101h78v-101h-78z" />
    <glyph glyph-name="Ugrave" unicode="&#xd9;" horiz-adv-x="519" 
d="M50 212v502h88v-502c0 -105 34 -154 121 -154c94 0 122 54 122 154v502h88v-502c0 -137 -70 -226 -210 -226c-143 0 -209 79 -209 226zM142 895h98l70 -142h-60z" />
    <glyph glyph-name="Yacute" unicode="&#xdd;" horiz-adv-x="462" 
d="M187 280l-189 434h97l136 -334l141 334h92l-189 -434v-280h-88v280zM181 753l70 142h98l-108 -142h-60z" />
    <glyph glyph-name="Ydieresis" unicode="&#x178;" horiz-adv-x="462" 
d="M187 280l-189 434h97l136 -334l141 334h92l-189 -434v-280h-88v280zM111 777v101h78v-101h-78zM273 777v101h78v-101h-78z" />
    <glyph glyph-name="Zcaron" unicode="&#x17d;" 
d="M23 0v74l321 562h-303v78h395v-81l-321 -555h325v-78h-417zM371 895l-101 -142h-77l-100 142h78l61 -88l61 88h78z" />
    <glyph glyph-name="aacute" unicode="&#xe1;" horiz-adv-x="444" 
d="M126 374h-84c0 122 52 176 180 176c163 0 163 -98 163 -154v-299c0 -22 0 -43 26 -43c11 0 16 2 20 5v-60c-6 -1 -28 -5 -49 -5c-32 0 -72 0 -76 69h-2c-27 -48 -79 -77 -129 -77c-100 0 -146 60 -146 156c0 75 32 127 101 148l113 34c61 19 61 36 61 81
c0 50 -30 79 -86 79c-92 0 -92 -86 -92 -105v-5zM301 154v138c-31 -33 -105 -40 -143 -63c-27 -17 -41 -38 -41 -85c0 -54 19 -92 76 -92c55 0 108 47 108 102zM172 610l70 142h98l-108 -142h-60z" />
    <glyph glyph-name="acircumflex" unicode="&#xe2;" horiz-adv-x="444" 
d="M126 374h-84c0 122 52 176 180 176c163 0 163 -98 163 -154v-299c0 -22 0 -43 26 -43c11 0 16 2 20 5v-60c-6 -1 -28 -5 -49 -5c-32 0 -72 0 -76 69h-2c-27 -48 -79 -77 -129 -77c-100 0 -146 60 -146 156c0 75 32 127 101 148l113 34c61 19 61 36 61 81
c0 50 -30 79 -86 79c-92 0 -92 -86 -92 -105v-5zM301 154v138c-31 -33 -105 -40 -143 -63c-27 -17 -41 -38 -41 -85c0 -54 19 -92 76 -92c55 0 108 47 108 102zM83 610l101 142h77l100 -142h-78l-61 88l-61 -88h-78z" />
    <glyph glyph-name="adieresis" unicode="&#xe4;" horiz-adv-x="444" 
d="M126 374h-84c0 122 52 176 180 176c163 0 163 -98 163 -154v-299c0 -22 0 -43 26 -43c11 0 16 2 20 5v-60c-6 -1 -28 -5 -49 -5c-32 0 -72 0 -76 69h-2c-27 -48 -79 -77 -129 -77c-100 0 -146 60 -146 156c0 75 32 127 101 148l113 34c61 19 61 36 61 81
c0 50 -30 79 -86 79c-92 0 -92 -86 -92 -105v-5zM301 154v138c-31 -33 -105 -40 -143 -63c-27 -17 -41 -38 -41 -85c0 -54 19 -92 76 -92c55 0 108 47 108 102zM102 634v101h78v-101h-78zM264 634v101h78v-101h-78z" />
    <glyph glyph-name="agrave" unicode="&#xe0;" horiz-adv-x="444" 
d="M126 374h-84c0 122 52 176 180 176c163 0 163 -98 163 -154v-299c0 -22 0 -43 26 -43c11 0 16 2 20 5v-60c-6 -1 -28 -5 -49 -5c-32 0 -72 0 -76 69h-2c-27 -48 -79 -77 -129 -77c-100 0 -146 60 -146 156c0 75 32 127 101 148l113 34c61 19 61 36 61 81
c0 50 -30 79 -86 79c-92 0 -92 -86 -92 -105v-5zM301 154v138c-31 -33 -105 -40 -143 -63c-27 -17 -41 -38 -41 -85c0 -54 19 -92 76 -92c55 0 108 47 108 102zM104 752h98l70 -142h-60z" />
    <glyph glyph-name="aring" unicode="&#xe5;" horiz-adv-x="444" 
d="M126 374h-84c0 122 52 176 180 176c163 0 163 -98 163 -154v-299c0 -22 0 -43 26 -43c11 0 16 2 20 5v-60c-6 -1 -28 -5 -49 -5c-32 0 -72 0 -76 69h-2c-27 -48 -79 -77 -129 -77c-100 0 -146 60 -146 156c0 75 32 127 101 148l113 34c61 19 61 36 61 81
c0 50 -30 79 -86 79c-92 0 -92 -86 -92 -105v-5zM301 154v138c-31 -33 -105 -40 -143 -63c-27 -17 -41 -38 -41 -85c0 -54 19 -92 76 -92c55 0 108 47 108 102zM123 690c0 55 44 99 99 99s99 -44 99 -99s-44 -99 -99 -99s-99 44 -99 99zM165 690c0 -31 26 -57 57 -57
s57 26 57 57s-26 57 -57 57s-57 -26 -57 -57z" />
    <glyph glyph-name="atilde" unicode="&#xe3;" horiz-adv-x="444" 
d="M126 374h-84c0 122 52 176 180 176c163 0 163 -98 163 -154v-299c0 -22 0 -43 26 -43c11 0 16 2 20 5v-60c-6 -1 -28 -5 -49 -5c-32 0 -72 0 -76 69h-2c-27 -48 -79 -77 -129 -77c-100 0 -146 60 -146 156c0 75 32 127 101 148l113 34c61 19 61 36 61 81
c0 50 -30 79 -86 79c-92 0 -92 -86 -92 -105v-5zM301 154v138c-31 -33 -105 -40 -143 -63c-27 -17 -41 -38 -41 -85c0 -54 19 -92 76 -92c55 0 108 47 108 102zM315 740h54c0 -50 -29 -111 -86 -111c-42 0 -94 38 -115 38c-26 0 -36 -27 -39 -45h-54c0 59 40 111 93 111
c19 0 40 -9 60 -19c20 -9 39 -19 52 -19c26 0 31 27 35 45z" />
    <glyph glyph-name="ccedilla" unicode="&#xe7;" horiz-adv-x="426" 
d="M151 -81l47 67c-117 10 -166 101 -166 275c0 134 26 289 191 289c146 0 171 -115 171 -177h-84c0 52 -21 111 -85 111c-52 0 -105 -26 -105 -222c0 -70 1 -210 102 -210c72 0 88 76 88 134h84c0 -80 -37 -186 -154 -199l-29 -41l2 -2c7 3 23 6 30 6c34 0 80 -21 80 -76
c0 -51 -51 -86 -107 -86c-37 0 -77 7 -99 20l15 34c3 -1 48 -12 64 -12c41 0 55 19 55 41c0 23 -23 37 -47 37c-21 0 -34 -4 -38 -7z" />
    <glyph glyph-name="eacute" unicode="&#xe9;" horiz-adv-x="444" 
d="M128 324h191v29c0 60 -19 131 -93 131c-88 0 -98 -108 -98 -140v-20zM407 258h-282c0 -82 0 -206 103 -206c80 0 91 84 91 124h84c0 -57 -34 -190 -180 -190c-131 0 -186 91 -186 275c0 134 26 289 191 289c164 0 179 -143 179 -258v-34zM172 610l70 142h98l-108 -142
h-60z" />
    <glyph glyph-name="ecircumflex" unicode="&#xea;" horiz-adv-x="444" 
d="M128 324h191v29c0 60 -19 131 -93 131c-88 0 -98 -108 -98 -140v-20zM407 258h-282c0 -82 0 -206 103 -206c80 0 91 84 91 124h84c0 -57 -34 -190 -180 -190c-131 0 -186 91 -186 275c0 134 26 289 191 289c164 0 179 -143 179 -258v-34zM83 610l101 142h77l100 -142h-78
l-61 88l-61 -88h-78z" />
    <glyph glyph-name="edieresis" unicode="&#xeb;" horiz-adv-x="444" 
d="M128 324h191v29c0 60 -19 131 -93 131c-88 0 -98 -108 -98 -140v-20zM407 258h-282c0 -82 0 -206 103 -206c80 0 91 84 91 124h84c0 -57 -34 -190 -180 -190c-131 0 -186 91 -186 275c0 134 26 289 191 289c164 0 179 -143 179 -258v-34zM102 634v101h78v-101h-78z
M264 634v101h78v-101h-78z" />
    <glyph glyph-name="egrave" unicode="&#xe8;" horiz-adv-x="444" 
d="M128 324h191v29c0 60 -19 131 -93 131c-88 0 -98 -108 -98 -140v-20zM407 258h-282c0 -82 0 -206 103 -206c80 0 91 84 91 124h84c0 -57 -34 -190 -180 -190c-131 0 -186 91 -186 275c0 134 26 289 191 289c164 0 179 -143 179 -258v-34zM104 752h98l70 -142h-60z" />
    <glyph glyph-name="iacute" unicode="&#xed;" horiz-adv-x="204" 
d="M60 0v536h84v-536h-84zM52 610l70 142h98l-108 -142h-60z" />
    <glyph glyph-name="icircumflex" unicode="&#xee;" horiz-adv-x="204" 
d="M60 0v536h84v-536h-84zM-37 610l101 142h77l100 -142h-78l-61 88l-61 -88h-78z" />
    <glyph glyph-name="idieresis" unicode="&#xef;" horiz-adv-x="204" 
d="M60 0v536h84v-536h-84zM-18 634v101h78v-101h-78zM144 634v101h78v-101h-78z" />
    <glyph glyph-name="igrave" unicode="&#xec;" horiz-adv-x="204" 
d="M60 0v536h84v-536h-84zM-16 752h98l70 -142h-60z" />
    <glyph glyph-name="ntilde" unicode="&#xf1;" 
d="M55 0v536h80v-63h2c22 49 78 77 130 77c141 0 141 -107 141 -170v-380h-84v370c0 41 -3 108 -79 108c-45 0 -106 -30 -106 -108v-370h-84zM325 740h54c0 -50 -29 -111 -86 -111c-42 0 -94 38 -115 38c-26 0 -36 -27 -39 -45h-54c0 59 40 111 93 111c19 0 40 -9 60 -19
c20 -9 39 -19 52 -19c26 0 31 27 35 45z" />
    <glyph glyph-name="oacute" unicode="&#xf3;" horiz-adv-x="444" 
d="M29 268c0 151 39 282 193 282c155 0 193 -131 193 -282s-39 -282 -193 -282c-155 0 -193 131 -193 282zM220 52c89 0 107 100 107 216s-17 216 -107 216c-85 0 -103 -100 -103 -216s17 -216 103 -216zM172 610l70 142h98l-108 -142h-60z" />
    <glyph glyph-name="ocircumflex" unicode="&#xf4;" horiz-adv-x="444" 
d="M29 268c0 151 39 282 193 282c155 0 193 -131 193 -282s-39 -282 -193 -282c-155 0 -193 131 -193 282zM220 52c89 0 107 100 107 216s-17 216 -107 216c-85 0 -103 -100 -103 -216s17 -216 103 -216zM83 610l101 142h77l100 -142h-78l-61 88l-61 -88h-78z" />
    <glyph glyph-name="odieresis" unicode="&#xf6;" horiz-adv-x="444" 
d="M29 268c0 151 39 282 193 282c155 0 193 -131 193 -282s-39 -282 -193 -282c-155 0 -193 131 -193 282zM220 52c89 0 107 100 107 216s-17 216 -107 216c-85 0 -103 -100 -103 -216s17 -216 103 -216zM102 634v101h78v-101h-78zM264 634v101h78v-101h-78z" />
    <glyph glyph-name="ograve" unicode="&#xf2;" horiz-adv-x="444" 
d="M29 268c0 151 39 282 193 282c155 0 193 -131 193 -282s-39 -282 -193 -282c-155 0 -193 131 -193 282zM220 52c89 0 107 100 107 216s-17 216 -107 216c-85 0 -103 -100 -103 -216s17 -216 103 -216zM104 752h98l70 -142h-60z" />
    <glyph glyph-name="otilde" unicode="&#xf5;" horiz-adv-x="444" 
d="M29 268c0 151 39 282 193 282c155 0 193 -131 193 -282s-39 -282 -193 -282c-155 0 -193 131 -193 282zM220 52c89 0 107 100 107 216s-17 216 -107 216c-85 0 -103 -100 -103 -216s17 -216 103 -216zM315 740h54c0 -50 -29 -111 -86 -111c-42 0 -94 38 -115 38
c-26 0 -36 -27 -39 -45h-54c0 59 40 111 93 111c19 0 40 -9 60 -19c20 -9 39 -19 52 -19c26 0 31 27 35 45z" />
    <glyph glyph-name="scaron" unicode="&#x161;" horiz-adv-x="407" 
d="M369 379h-84c0 68 -18 105 -79 105c-27 0 -87 -7 -87 -82c0 -63 66 -75 132 -97c65 -22 131 -45 131 -151c0 -113 -73 -168 -173 -168c-182 0 -184 135 -184 190h84c0 -65 18 -124 100 -124c27 0 89 13 89 89c0 72 -66 87 -131 109s-132 41 -132 152
c0 100 78 148 171 148c156 0 162 -108 163 -171zM343 752l-101 -142h-77l-100 142h78l61 -88l61 88h78z" />
    <glyph glyph-name="uacute" unicode="&#xfa;" 
d="M408 536v-536h-80v63h-2c-22 -49 -78 -77 -130 -77c-141 0 -141 107 -141 170v380h84v-370c0 -41 3 -108 79 -108c45 0 106 30 106 108v370h84zM182 610l70 142h98l-108 -142h-60z" />
    <glyph glyph-name="ucircumflex" unicode="&#xfb;" 
d="M408 536v-536h-80v63h-2c-22 -49 -78 -77 -130 -77c-141 0 -141 107 -141 170v380h84v-370c0 -41 3 -108 79 -108c45 0 106 30 106 108v370h84zM93 610l101 142h77l100 -142h-78l-61 88l-61 -88h-78z" />
    <glyph glyph-name="udieresis" unicode="&#xfc;" 
d="M408 536v-536h-80v63h-2c-22 -49 -78 -77 -130 -77c-141 0 -141 107 -141 170v380h84v-370c0 -41 3 -108 79 -108c45 0 106 30 106 108v370h84zM112 634v101h78v-101h-78zM274 634v101h78v-101h-78z" />
    <glyph glyph-name="ugrave" unicode="&#xf9;" 
d="M408 536v-536h-80v63h-2c-22 -49 -78 -77 -130 -77c-141 0 -141 107 -141 170v380h84v-370c0 -41 3 -108 79 -108c45 0 106 30 106 108v370h84zM114 752h98l70 -142h-60z" />
    <glyph glyph-name="yacute" unicode="&#xfd;" horiz-adv-x="406" 
d="M168 -11l-158 547h92l106 -430h2l94 430h92l-155 -572c-20 -74 -42 -140 -143 -140c-33 0 -47 2 -61 3v66c12 -2 28 -3 49 -3c39 0 56 23 66 52zM153 610l70 142h98l-108 -142h-60z" />
    <glyph glyph-name="ydieresis" unicode="&#xff;" horiz-adv-x="406" 
d="M168 -11l-158 547h92l106 -430h2l94 430h92l-155 -572c-20 -74 -42 -140 -143 -140c-33 0 -47 2 -61 3v66c12 -2 28 -3 49 -3c39 0 56 23 66 52zM83 634v101h78v-101h-78zM245 634v101h78v-101h-78z" />
    <glyph glyph-name="zcaron" unicode="&#x17e;" horiz-adv-x="389" 
d="M39 464v72h323v-70l-240 -394h238v-72h-333v66l243 398h-231zM334 752l-101 -142h-77l-100 142h78l61 -88l61 88h78z" />
    <glyph glyph-name="Delta" unicode="&#x2206;" horiz-adv-x="564" 
d="M28 0v51l213 662h86l209 -661v-52h-508zM103 64h354l-119 367c-15 56 -45 135 -55 182h-4c-8 -41 -35 -113 -50 -168z" />
    <glyph glyph-name="Omega" unicode="&#x2126;" horiz-adv-x="615" 
d="M167 65v3c-60 66 -114 174 -114 310c0 195 109 329 257 329c156 0 250 -152 250 -323c0 -142 -58 -256 -115 -316v-3h127v-65h-209v48c62 51 121 163 121 319c0 128 -57 273 -175 273c-111 0 -180 -120 -180 -275c0 -145 60 -269 121 -317v-48h-209v65h126z" />
    <glyph glyph-name="uni03BC" unicode="&#x3bc;" 
d="M408 536v-536h-80v63h-2c-22 -49 -78 -77 -130 -77c-23 0 -43 3 -57 14v-176h-84v712h84v-370c0 -41 3 -108 79 -108c45 0 106 30 106 108v370h84z" />
    <glyph glyph-name="pi" unicode="&#x3c0;" horiz-adv-x="503" 
d="M479 451h-68v-311c0 -77 6 -114 13 -140h-73c-8 17 -15 60 -15 136v315h-149c-4 -126 -30 -350 -63 -451h-73c34 111 59 320 62 451c-52 0 -75 -5 -93 -11l-11 52c22 15 61 27 129 27h347z" />
    <glyph glyph-name="Euro" unicode="&#x20ac;" horiz-adv-x="480" 
d="M465 661l-32 -71c-36 31 -69 52 -117 52c-112 0 -132 -100 -140 -191h227l-21 -60h-210l-1 -55h195l-21 -60h-173c3 -93 19 -222 139 -222c57 0 101 27 144 62v-87c-48 -31 -94 -43 -151 -43c-177 0 -216 141 -224 290h-61l21 60h39l1 55h-62l21 60h44
c13 140 69 260 229 260c60 0 104 -18 153 -50z" />
    <glyph glyph-name="afii61289" unicode="&#x2113;" horiz-adv-x="429" 
d="M376 140l34 -31c-38 -79 -94 -118 -164 -118c-107 0 -146 84 -149 185v14c-15 -14 -33 -29 -50 -44l-22 44c26 24 50 45 72 68v271c0 176 70 236 140 236c73 0 109 -68 109 -160c0 -122 -70 -242 -177 -358v-40c0 -112 41 -155 92 -155c53 0 93 47 115 88zM169 529v-204
c73 90 128 187 128 281c0 62 -16 99 -59 99c-33 0 -69 -43 -69 -176z" />
    <glyph glyph-name="estimated" unicode="&#x212e;" horiz-adv-x="870" 
d="M836 337h-650c-3 0 -5 -1 -5 -4v-197c0 -8 3 -16 9 -22c63 -65 149 -107 245 -107c104 0 196 47 259 119h57c-71 -84 -188 -139 -317 -139c-221 0 -400 161 -400 360s179 361 400 361c222 0 402 -162 402 -361v-10zM688 363v197c0 9 -3 17 -9 24
c-63 62 -149 102 -244 102s-181 -42 -244 -106c-7 -6 -10 -15 -10 -24v-193c0 -3 2 -7 5 -7h498c3 0 4 4 4 7z" />
    <glyph glyph-name="partialdiff" unicode="&#x2202;" horiz-adv-x="484" 
d="M91 668l-24 59c29 25 76 53 147 53c114 0 225 -111 225 -374c0 -252 -81 -415 -231 -415c-113 0 -170 108 -170 228c0 159 91 258 190 258c75 0 122 -53 136 -82h1c1 10 1 28 1 39c0 163 -71 281 -160 281c-53 0 -90 -25 -115 -47zM215 57h1c79 0 131 123 142 259
c-13 42 -55 96 -119 96c-70 0 -126 -89 -126 -194c0 -96 39 -161 102 -161z" />
    <glyph glyph-name="product" unicode="&#x220f;" horiz-adv-x="615" 
d="M590 624h-92v-720h-74v720h-234v-720h-74v720h-92v72h566v-72z" />
    <glyph glyph-name="summation" unicode="&#x2211;" horiz-adv-x="486" 
d="M466 -96h-444v53l232 343l-223 341v55h420v-66h-319v-4l206 -313l-225 -331v-4h353v-74z" />
    <glyph glyph-name="uni2219" unicode="&#x2219;" horiz-adv-x="240" 
d="M64 327c0 31 25 56 56 56s56 -25 56 -56s-25 -56 -56 -56s-56 25 -56 56z" />
    <glyph glyph-name="radical" unicode="&#x221a;" horiz-adv-x="513" 
d="M510 830l-195 -977h-65l-139 460l-66 -25l-14 47l128 50l106 -352c6 -28 13 -60 16 -79h1c3 19 8 50 12 79l161 797h55z" />
    <glyph glyph-name="infinity" unicode="&#x221e;" horiz-adv-x="711" 
d="M666 290v-1c0 -91 -68 -149 -142 -149c-57 0 -103 33 -167 108c-48 -56 -98 -108 -173 -108s-139 62 -139 145c0 86 62 148 145 148c70 0 121 -49 170 -108c45 51 92 108 171 108s135 -58 135 -143zM190 187h2c57 0 100 55 139 96c-41 51 -81 105 -146 105
c-58 0 -90 -48 -90 -104c0 -54 39 -97 95 -97zM525 388h-1c-60 0 -108 -67 -139 -100c59 -68 93 -101 142 -101c57 0 89 51 89 98c0 64 -38 103 -91 103z" />
    <glyph glyph-name="integral" unicode="&#x222b;" horiz-adv-x="334" 
d="M314 840l-11 -55c-8 4 -20 9 -32 9c-16 0 -33 -8 -45 -25c-22 -29 -29 -81 -29 -176c0 -157 12 -335 12 -500c0 -105 -17 -166 -38 -202s-58 -52 -95 -52c-25 0 -48 8 -59 15l13 57c7 -4 21 -10 38 -10c15 0 31 7 41 23c17 24 29 70 29 169c0 166 -12 347 -12 507
c0 110 13 171 49 212c23 26 57 40 90 40c19 0 39 -7 49 -12z" />
    <glyph glyph-name="approxequal" unicode="&#x2248;" horiz-adv-x="497" 
d="M426 422l31 -26c-23 -50 -61 -91 -116 -91c-36 0 -61 13 -103 38c-28 17 -53 32 -82 32c-41 0 -64 -33 -85 -69l-32 25c26 55 70 91 123 91c44 0 76 -24 100 -37c31 -18 52 -33 82 -33c35 0 58 26 82 70zM426 263l31 -25c-24 -50 -61 -91 -116 -91c-36 0 -61 13 -103 38
c-29 17 -53 32 -81 32c-42 0 -65 -34 -86 -70l-32 25c26 56 70 92 123 92c45 0 76 -24 100 -37c29 -17 52 -33 82 -33c36 0 58 26 82 69z" />
    <glyph glyph-name="notequal" unicode="&#x2260;" horiz-adv-x="497" 
d="M355 485l-39 -87h134v-50h-152l-59 -131h211v-49h-229l-47 -105l-38 16l39 89h-130v49h149l58 131h-207v50h226l45 103z" />
    <glyph glyph-name="lessequal" unicode="&#x2264;" horiz-adv-x="497" 
d="M448 104l-398 211v51l398 211v-60l-347 -175v-2l347 -176v-60zM451 15h-405v51h405v-51z" />
    <glyph glyph-name="greaterequal" unicode="&#x2265;" horiz-adv-x="497" 
d="M52 577l397 -211v-51l-397 -211v60l346 175v2l-346 176v60zM451 15h-404v51h404v-51z" />
    <glyph glyph-name="lozenge" unicode="&#x25ca;" horiz-adv-x="514" 
d="M464 348l-178 -388h-62l-175 388l178 388h62zM395 346l-120 266c-7 17 -14 41 -17 56h-3c-4 -16 -9 -37 -17 -56l-120 -262l121 -269c8 -20 13 -42 15 -54h4c3 13 10 40 16 53z" />
    <glyph glyph-name="uni00A0" unicode="&#xa0;" horiz-adv-x="240" 
 />
    <glyph glyph-name="uni00AD" unicode="&#xad;" horiz-adv-x="352" 
d="M54 245v78h244v-78h-244z" />
    <glyph glyph-name="uni02C9" unicode="&#x2c9;" horiz-adv-x="204" 
d="M-30 655v54h264v-54h-264z" />
    <glyph glyph-name="uni03A9" unicode="&#x3a9;" horiz-adv-x="615" 
d="M167 65v3c-60 66 -114 174 -114 310c0 195 109 329 257 329c156 0 250 -152 250 -323c0 -142 -58 -256 -115 -316v-3h127v-65h-209v48c62 51 121 163 121 319c0 128 -57 273 -175 273c-111 0 -180 -120 -180 -275c0 -145 60 -269 121 -317v-48h-209v65h126z" />
    <glyph glyph-name="uni2215" unicode="&#x2215;" horiz-adv-x="167" 
d="M-164 -31l435 756h60l-435 -756h-60z" />
    <glyph glyph-name="a.superior" horiz-adv-x="289" 
d="M251 612v-176c0 -13 0 -27 17 -27c7 0 11 2 13 3v-42c-4 -1 -18 -3 -38 -3c-26 0 -49 12 -50 46h-2c-16 -29 -50 -46 -88 -46c-62 0 -95 39 -95 93c0 48 21 78 72 92l73 20c38 11 38 22 38 45c0 30 -20 43 -54 43c-59 0 -59 -47 -59 -58v-4h-60c0 78 34 110 127 110
c106 0 106 -62 106 -96zM191 470v77c-20 -20 -70 -22 -93 -38c-15 -10 -24 -19 -24 -45s12 -49 46 -49c36 0 71 28 71 55z" />
    <glyph glyph-name="o.superior" horiz-adv-x="289" 
d="M143 708c105 0 130 -82 130 -169c0 -90 -26 -172 -130 -172c-102 0 -127 82 -127 172c0 87 25 169 127 169zM143 415c52 0 64 64 64 124c0 58 -11 121 -64 121c-49 0 -61 -63 -61 -121c0 -60 11 -124 61 -124z" />
    <glyph glyph-name="one.superior" horiz-adv-x="312" 
d="M128 280v313h-96v48c57 0 111 7 113 67h49v-428h-66z" />
    <glyph glyph-name="two.superior" horiz-adv-x="312" 
d="M282 280h-261c0 80 49 133 100 175l37 30c38 30 62 56 62 103c0 35 -18 60 -66 60c-57 0 -62 -51 -62 -76h-72c0 77 35 136 139 136c77 0 133 -38 133 -114c0 -66 -29 -100 -81 -141l-62 -50c-26 -21 -40 -43 -47 -63h180v-60z" />
    <glyph glyph-name="three.superior" horiz-adv-x="312" 
d="M116 474v54h24c48 0 72 30 72 69c0 30 -18 57 -55 57c-56 0 -62 -46 -62 -69h-72c0 73 37 123 136 123c103 0 125 -63 125 -111c0 -43 -29 -81 -84 -92v-2c57 -9 96 -39 96 -99c0 -78 -43 -131 -136 -131c-133 0 -144 99 -144 118v5h72c0 -31 20 -69 70 -69
c27 0 66 16 66 73c0 45 -26 74 -80 74h-28z" />
    <glyph glyph-name="uni2010" unicode="&#x2010;" horiz-adv-x="352" 
d="M54 245v78h244v-78h-244z" />
    </font>
</defs>
</svg>
